{
    "asset": {
        "generator": "Khronos glTF Blender I/O v4.1.63",
        "version": "2.0"
    },
    "scene": 0,
    "scenes": [
        {
            "name": "Scene",
            "nodes": [0]
        }
    ],
    "nodes": [
        {
            "mesh": 0,
            "name": "Map",
            "translation": [0, 2.6755638122558594, 0]
        }
    ],
    "meshes": [
        {
            "name": "Cube.002",
            "primitives": [
                {
                    "attributes": {
                        "POSITION": 0,
                        "NORMAL": 1,
                        "TEXCOORD_0": 2
                    },
                    "indices": 3
                }
            ]
        }
    ],
    "accessors": [
        {
            "bufferView": 0,
            "componentType": 5126,
            "count": 192,
            "max": [10.003877639770508, 4.317364692687988, 10.003877639770508],
            "min": [
                -10.003877639770508, -2.731863021850586, -10.003877639770508
            ],
            "type": "VEC3"
        },
        {
            "bufferView": 1,
            "componentType": 5126,
            "count": 192,
            "type": "VEC3"
        },
        {
            "bufferView": 2,
            "componentType": 5126,
            "count": 192,
            "type": "VEC2"
        },
        {
            "bufferView": 3,
            "componentType": 5123,
            "count": 420,
            "type": "SCALAR"
        }
    ],
    "bufferViews": [
        {
            "buffer": 0,
            "byteLength": 2304,
            "byteOffset": 0,
            "target": 34962
        },
        {
            "buffer": 0,
            "byteLength": 2304,
            "byteOffset": 2304,
            "target": 34962
        },
        {
            "buffer": 0,
            "byteLength": 1536,
            "byteOffset": 4608,
            "target": 34962
        },
        {
            "buffer": 0,
            "byteLength": 840,
            "byteOffset": 6144,
            "target": 34963
        }
    ],
    "buffers": [
        {
            "byteLength": 6984,
            "uri": "MuseumMap.bin"
        }
    ]
}
